<?xml version="1.0" encoding="utf-8"?>
<!-- Generator: Adobe Adobe Illustrator 24.2.0, SVG Export Plug-In . SVG Version: 6.00 Build 0)  -->
<svg version="1.1" id="Layer_1" xmlns="http://www.w3.org/2000/svg" xmlns:xlink="http://www.w3.org/1999/xlink" x="0px" y="0px"
	 width="5000px" height="5000px" viewBox="0 0 5000 5000" style="enable-background:new 0 0 5000 5000;" xml:space="preserve">
<style type="text/css">
	.st0{fill:#D81159;}
	.st1{fill:#00A6DC;}
	.st2{opacity:0.7804;fill:none;stroke:#000000;stroke-miterlimit:10;}
	.st3{opacity:0.7882;fill:none;stroke:#000000;stroke-miterlimit:10;}
	.st4{fill:none;stroke:#000000;stroke-miterlimit:10;}
</style>
<g>
	<polygon class="st0" points="4704.38,948.34 1343.41,4078.75 4711.43,4078.75 4711.43,4925.7 93.69,4925.7 93.69,4085.34 
		100.75,4078.75 3461.72,948.34 93.69,948.34 93.69,101.39 4711.43,101.39 4711.43,948.34 	"/>
</g>
<g>
	<path class="st1" d="M4569.15,1312.18l-670.67,385.6c-35.73-62.13-75.33-121.6-118.4-178.27l614.54-469.87
		C4458.35,1133.12,4516.62,1220.72,4569.15,1312.18z"/>
	<path class="st1" d="M4911.65,4288.91l-394-488.54c-208.93,331.07-496.14,607.87-835.74,804.27
		c-180.4,104.4-375.74,186.13-581.74,241.2h-0.13c-199.47,53.47-409.07,81.87-625.34,81.87
		c-1118.14,0-2058.68-760.14-2333.08-1791.74l748.8-199.47c37.33,140.4,92.93,273.47,164,396.4c35.87,62.27,75.87,122,119.6,178.8
		c43.6,56.93,91.07,110.8,141.73,161.47c101.2,101.2,215.6,189.2,340.27,261.2c122.8,71.07,255.6,126.53,395.87,163.87
		c135.07,36,276.93,55.2,423.34,55.2c147.33,0,290-19.47,425.74-55.87h0.13c140-37.47,272.4-93.07,394.94-164.13h0.13
		c190.4-110.27,356.54-257.6,488.4-432.27l0.27-3.2l-644.67,38.53l927.61-629.87l546.54-371.07l134.13,791.07L4911.65,4288.91z"/>
	<path class="st1" d="M1660.73,1089.78c-492.4,282.27-824.4,812.67-825.47,1420.67v0.67l-774.67-1.33
		c1.33-894.94,489.6-1675.61,1214.14-2091.48L1660.73,1089.78z"/>
	<path class="st1" d="M3108.61,183.38l-201.73,747.34c-137.47-37.33-282.27-57.33-431.6-57.33c-144.27,0-284.27,18.67-417.6,53.6
		c-0.13,0-0.13,0-0.27,0l-199.07-748.14c196.8-51.87,403.34-79.47,616.4-79.47C2694.07,99.38,2906.61,128.58,3108.61,183.38z"/>
	<path class="st1" d="M4187.42,812.05l-548.14,546.14c-100.4-101.33-214-189.47-337.87-261.73l388.14-669.6
		C3872.08,533.25,4039.41,662.98,4187.42,812.05z"/>
</g>
<g>
	<path class="st2" d="M3129.19,154.35l-201.62,751.91c-135.28-36.22-277.11-55.42-423.74-55.42c-146.63,0-288.9,19.2-424.18,55.42
		L1877.6,154.35c199.87-53.68,409.78-82.04,626.23-82.04C2720.28,72.3,2929.75,100.67,3129.19,154.35z"/>
	<path class="st2" d="M1686.02,1069.91c-123.94,71.57-237.84,159.29-338.64,260.09s-188.52,214.71-260.09,338.64
		c-70.7,122.19-126.12,254.42-163.65,394.07c-36.22,135.28-55.42,277.11-55.42,423.74H89.68c0-216.45,28.37-425.92,82.04-625.36
		c54.99-205.98,136.59-401.49,241.33-581.72c105.61-183.29,234.78-351.3,383.59-500.11c148.81-148.81,316.83-277.99,500.11-383.59
		L1686.02,1069.91z"/>
	<path class="st2" d="M4211.02,779.27L3660.28,1330c-100.81-100.81-214.71-188.52-339.08-260.53l389.27-674.67
		C3893.76,500.85,4062.21,630.45,4211.02,779.27z"/>
	<path class="st2" d="M4936.75,4261.72l-391.88-485.71c-95.57,151.43-207.29,291.51-333.85,417.63
		c-436.83,436.83-1040.37,706.96-1707.19,706.96c-216.45,0-425.92-28.37-625.36-82.04c-205.98-54.99-401.05-136.59-581.28-240.89
		c-183.29-106.04-351.74-235.22-500.55-384.03C501.2,3898.2,282.13,3526.83,171.29,3111.38l752.35-201.62
		c36.22,136.16,89.9,265.33,158.41,385.34c72.44,127.43,161.9,244.38,265.33,347.81c100.81,100.81,214.71,188.52,338.64,260.53
		c122.19,70.7,254.42,126.12,394.07,163.22c135.28,36.22,277.11,55.42,423.74,55.42c146.63,0,288.9-19.2,424.18-55.42
		c139.65-37.53,271.87-92.95,394.07-163.22c123.94-72,237.4-159.72,338.21-260.53c53.68-53.68,103.86-111.28,149.68-171.94
		l-644.56,38.4l1474.15-1001.1l105.17,578.23l36.66,201.62L4936.75,4261.72z"/>
	<path class="st3" d="M4594.39,1295.53l-686.89,396.25c-35.35-61.09-75.06-120.01-118.26-175.87l629.28-483.09
		C4483.1,1116.16,4541.58,1203.88,4594.39,1295.53z"/>
</g>
<g>
	<path class="st4" d="M4596.56,1285.09l-670.67,385.6c-35.73-62.13-75.33-121.6-118.4-178.27l614.54-469.87
		C4485.76,1106.02,4544.03,1193.62,4596.56,1285.09z"/>
	<path class="st4" d="M4939.06,4261.82l-394-488.54c-208.93,331.07-496.14,607.87-835.74,804.27
		c-180.4,104.4-375.74,186.13-581.74,241.2h-0.13c-199.47,53.47-409.07,81.87-625.34,81.87
		c-1118.14,0-2058.68-760.14-2333.08-1791.74l748.8-199.47c37.33,140.4,92.93,273.47,164,396.4c35.87,62.27,75.87,122,119.6,178.8
		c43.6,56.93,91.07,110.8,141.73,161.47c101.2,101.2,215.6,189.2,340.27,261.2c122.8,71.07,255.6,126.53,395.87,163.87
		c135.07,36,276.93,55.2,423.34,55.2c147.33,0,290-19.47,425.74-55.87h0.13c140-37.47,272.4-93.07,394.94-164.13h0.13
		c190.4-110.27,356.54-257.6,488.4-432.27l0.27-3.2l-644.67,38.53l927.61-629.87l546.54-371.07l134.13,791.07L4939.06,4261.82z"/>
	<path class="st4" d="M1688.15,1062.69c-492.4,282.27-824.4,812.67-825.47,1420.67v0.67L88,2482.7
		c1.33-894.94,489.6-1675.61,1214.14-2091.48L1688.15,1062.69z"/>
	<path class="st4" d="M3136.02,156.29l-201.73,747.34c-137.47-37.33-282.27-57.33-431.6-57.33c-144.27,0-284.27,18.67-417.6,53.6
		c-0.13,0-0.13,0-0.27,0l-199.07-748.14c196.8-51.87,403.34-79.47,616.4-79.47C2721.49,72.29,2934.02,101.49,3136.02,156.29z"/>
	<path class="st4" d="M4214.83,784.96l-548.14,546.14c-100.4-101.33-214-189.47-337.87-261.73l388.14-669.6
		C3899.49,506.15,4066.83,635.89,4214.83,784.96z"/>
</g>
<g>
	<polygon class="st0" points="4704.38,948.34 1343.41,4078.75 4711.43,4078.75 4711.43,4925.7 93.69,4925.7 93.69,4085.34 
		100.75,4078.75 3461.72,948.34 93.69,948.34 93.69,101.39 4711.43,101.39 4711.43,948.34 	"/>
</g>
<g>
	<path class="st1" d="M4569.15,1312.18l-670.67,385.6c-35.73-62.13-75.33-121.6-118.4-178.27l614.54-469.87
		C4458.35,1133.12,4516.62,1220.72,4569.15,1312.18z"/>
	<path class="st1" d="M4911.65,4288.91l-394-488.54c-208.93,331.07-496.14,607.87-835.74,804.27
		c-180.4,104.4-375.74,186.13-581.74,241.2h-0.13c-199.47,53.47-409.07,81.87-625.34,81.87
		c-1118.14,0-2058.68-760.14-2333.08-1791.74l748.8-199.47c37.33,140.4,92.93,273.47,164,396.4c35.87,62.27,75.87,122,119.6,178.8
		c43.6,56.93,91.07,110.8,141.73,161.47c101.2,101.2,215.6,189.2,340.27,261.2c122.8,71.07,255.6,126.53,395.87,163.87
		c135.07,36,276.93,55.2,423.34,55.2c147.33,0,290-19.47,425.74-55.87h0.13c140-37.47,272.4-93.07,394.94-164.13h0.13
		c190.4-110.27,356.54-257.6,488.4-432.27l0.27-3.2l-644.67,38.53l927.61-629.87l546.54-371.07l134.13,791.07L4911.65,4288.91z"/>
	<path class="st1" d="M1660.73,1089.78c-492.4,282.27-824.4,812.67-825.47,1420.67v0.67l-774.67-1.33
		c1.33-894.94,489.6-1675.61,1214.14-2091.48L1660.73,1089.78z"/>
	<path class="st1" d="M3108.61,183.38l-201.73,747.34c-137.47-37.33-282.27-57.33-431.6-57.33c-144.27,0-284.27,18.67-417.6,53.6
		c-0.13,0-0.13,0-0.27,0l-199.07-748.14c196.8-51.87,403.34-79.47,616.4-79.47C2694.07,99.38,2906.61,128.58,3108.61,183.38z"/>
	<path class="st1" d="M4187.42,812.05l-548.14,546.14c-100.4-101.33-214-189.47-337.87-261.73l388.14-669.6
		C3872.08,533.25,4039.41,662.98,4187.42,812.05z"/>
</g>
<g>
	<path class="st4" d="M4596.91,1285.09l-670.67,385.6c-35.73-62.13-75.33-121.6-118.4-178.27l614.54-469.87
		C4486.11,1106.02,4544.38,1193.62,4596.91,1285.09z"/>
	<path class="st4" d="M4939.41,4261.82l-394-488.54c-208.93,331.07-496.14,607.87-835.74,804.27
		c-180.4,104.4-375.74,186.13-581.74,241.2h-0.13c-199.47,53.47-409.07,81.87-625.34,81.87
		c-1118.14,0-2058.68-760.14-2333.08-1791.74l748.8-199.47c37.33,140.4,92.93,273.47,164,396.4c35.87,62.27,75.87,122,119.6,178.8
		c43.6,56.93,91.07,110.8,141.73,161.47c101.2,101.2,215.6,189.2,340.27,261.2c122.8,71.07,255.6,126.53,395.87,163.87
		c135.07,36,276.93,55.2,423.34,55.2c147.33,0,290-19.47,425.74-55.87h0.13c140-37.47,272.4-93.07,394.94-164.13h0.13
		c190.4-110.27,356.54-257.6,488.4-432.27l0.27-3.2l-644.67,38.53l927.61-629.87l546.54-371.07l134.13,791.07L4939.41,4261.82z"/>
	<path class="st4" d="M1688.49,1062.69c-492.4,282.27-824.4,812.67-825.47,1420.67v0.67l-774.67-1.33
		c1.33-894.94,489.6-1675.61,1214.14-2091.48L1688.49,1062.69z"/>
	<path class="st4" d="M3136.37,156.29l-201.73,747.34c-137.47-37.33-282.27-57.33-431.6-57.33c-144.27,0-284.27,18.67-417.6,53.6
		c-0.13,0-0.13,0-0.27,0l-199.07-748.14c196.8-51.87,403.34-79.47,616.4-79.47C2721.83,72.29,2934.37,101.49,3136.37,156.29z"/>
	<path class="st4" d="M4215.17,784.96l-548.14,546.14c-100.4-101.33-214-189.47-337.87-261.73l388.14-669.6
		C3899.84,506.15,4067.17,635.89,4215.17,784.96z"/>
</g>
</svg>
